0
SECTION
2
HEADER
9
$INSUNITS
70
4
9
$ACADVER
1
AC1014
9
$HANDSEED
5
FFFF
0
ENDSEC
0
SECTION
2
TABLES
0
TABLE
2
VPORT
5
8
100
AcDbSymbolTable
0
ENDTAB
0
TABLE
2
LTYPE
5
5
100
AcDbSymbolTable
0
LTYPE
5
14
100
AcDbSymbolTableRecord
100
AcDbLinetypeTableRecord
2
BYBLOCK
70
0
0
LTYPE
5
15
100
AcDbSymbolTableRecord
100
AcDbLinetypeTableRecord
2
BYLAYER
70
0
0
LTYPE
5
16
100
AcDbSymbolTableRecord
100
AcDbLinetypeTableRecord
2
DASHED
70
0
3
Dashed __ __ __ __ __ __ __ __ __ __ __ __ __ _
72
65
73
2
40
0.75
49
0.5
74
0
49
-0.25
74
0
0
ENDTAB
0
TABLE
2
LAYER
5
2
100
AcDbSymbolTable
70
2
0
LAYER
5
50
100
AcDbSymbolTableRecord
100
AcDbLayerTableRecord
2
0
70
0
62
7
6
CONTINUOUS
0
ENDTAB
0
TABLE
2
STYLE
5
3
100
AcDbSymbolTable
70
1
0
STYLE
5
11
100
AcDbSymbolTableRecord
100
AcDbTextStyleTableRecord
2
STANDARD
70
0
0
ENDTAB
0
TABLE
2
VIEW
5
6
100
AcDbSymbolTable
70
0
0
ENDTAB
0
TABLE
2
UCS
5
7
100
AcDbSymbolTable
70
0
0
ENDTAB
0
TABLE
2
APPID
5
9
100
AcDbSymbolTable
70
2
0
APPID
5
12
100
AcDbSymbolTableRecord
100
AcDbRegAppTableRecord
2
ACAD
70
0
0
ENDTAB
0
TABLE
2
DIMSTYLE
5
A
100
AcDbSymbolTable
70
1
0
ENDTAB
0
TABLE
2
BLOCK_RECORD
5
1
100
AcDbSymbolTable
70
1
0
BLOCK_RECORD
5
1F
100
AcDbSymbolTableRecord
100
AcDbBlockTableRecord
2
*MODEL_SPACE
0
BLOCK_RECORD
5
1B
100
AcDbSymbolTableRecord
100
AcDbBlockTableRecord
2
*PAPER_SPACE
0
ENDTAB
0
ENDSEC
0
SECTION
2
BLOCKS
0
BLOCK
5
20
100
AcDbEntity
100
AcDbBlockBegin
2
*MODEL_SPACE
0
ENDBLK
5
21
100
AcDbEntity
100
AcDbBlockEnd
0
BLOCK
5
1C
100
AcDbEntity
100
AcDbBlockBegin
2
*PAPER_SPACE
0
ENDBLK
5
1D
100
AcDbEntity
100
AcDbBlockEnd
0
ENDSEC
0
SECTION
2
ENTITIES
0
POINT
5
100
100
AcDbEntity
8
0
100
AcDbPoint
10
0
20
0
30
0
0
POINT
5
101
100
AcDbEntity
8
0
100
AcDbPoint
10
0
20
0
30
0
0
POINT
5
102
100
AcDbEntity
8
0
100
AcDbPoint
10
0
20
0
30
0
0
CIRCLE
5
103
100
AcDbEntity
8
0
100
AcDbCircle
10
-30.309660125511222
20
17.500572586647998
30
0
40
4.2499999999999982
210
0
220
0
230
1
0
CIRCLE
5
104
100
AcDbEntity
8
0
100
AcDbCircle
10
30.309660125511222
20
17.500572586647994
30
0
40
4.2499999999999982
210
0
220
0
230
1
0
CIRCLE
5
105
100
AcDbEntity
8
0
100
AcDbCircle
10
-0.001961763734559252
20
-34.999999945021187
30
0
40
4.25
210
0
220
0
230
1
0
LWPOLYLINE
5
106
100
AcDbEntity
8
0
100
AcDbPolyline
90
52
70
1
43
0.0
10
-74.676212149744671
20
-15.68136663086892
42
0.98729818430630389
10
-75.021135242771336
20
-12.701507987511004
10
-77.870293034240291
20
11.912928224050624
42
0.18270699586868325
10
-79.492723885860414
20
15.054856006489349
42
-0.4878518934727033
10
-77.679473980883785
20
41.038863051121623
42
0.37842286714670426
10
-76.016571327996388
20
47.447009468144721
42
-0.3848023416154126
10
-74.598266052563957
20
52.672505844902098
42
0.072173779003137609
10
-73.514130372389104
20
53.614170658590474
10
-61.194319489424906
20
67.903593422336527
42
-0.27597704934376399
10
-56.63534998816742
20
69.418105374417792
42
0.34960003712318366
10
-51.038243397362528
20
72.155186939085368
42
-0.63353510921884371
10
-20.734069669302468
20
72.095578277960144
10
-19.211570422845092
20
68.856568594907003
42
0.29064084143717506
10
-14.686540492477997
20
65.983562748467847
10
14.990628388783394
20
65.983562748467847
42
0.33433594893105817
10
19.79564879152834
20
69.600891808148063
42
-0.69078941769041413
10
51.038243397362528
20
72.155186939085368
42
0.34960003712318466
10
56.635349988167427
20
69.418105374417792
42
-0.27597704934376099
10
61.194319489424906
20
67.903593422336513
10
73.514130372388919
20
53.614170658590652
42
0.072173779003144478
10
74.598266052563886
20
52.672505844902211
42
-0.38480234161541815
10
76.016571327996431
20
47.447009468144685
42
0.37842286714670553
10
77.679473980883785
20
41.038863051121567
42
-0.47453825470143035
10
80.0134064994661
20
15.544144149244532
42
0.16696697193665389
10
78.559575281718722
20
12.63882430960377
10
75.164111351563548
20
-12.723216081372692
42
1.0680795075117078
10
74.766885699283947
20
-15.6902489359925
10
74.09557763858129
20
-20.704509873687385
42
0.15409637076409982
10
74.667006180539573
20
-23.980358948263088
42
0.23599617789635477
10
78.282795144445117
20
-26.610033752182545
42
-0.025306226078769221
10
80.751468953331425
20
-27.151428551440354
42
-0.27449607860673347
10
86.11284169699843
20
-33.798042697572683
10
86.547641714535573
20
-37.876187835312876
42
0.0013467709233835801
10
86.550569433617312
20
-37.902963619095019
10
88.038195300260071
20
-51.177206637994779
42
-0.33230127146429644
10
82.688791647539475
20
-59.165116131065588
10
52.541660535003196
20
-69.797476687972903
42
-0.32712438047933856
10
32.672204455354233
20
-63.79795934689669
42
0.26229862799583281
10
27.77273889707552
20
-61.653884043027844
42
-0.050071459968883347
10
-27.898155076969715
20
-61.680287839565402
42
0.27010867884325218
10
-32.478753207146255
20
-63.770196387543507
42
-0.33019762475557268
10
-52.144195789275059
20
-70.239481953189241
10
-83.055057338655359
20
-58.797706352183212
42
0.013539044464437565
10
-83.311404423906126
20
-58.710634034620817
42
-0.39311625938696576
10
-87.693954891618773
20
-51.079689124278964
42
0.036318268955804603
10
-87.581827406920141
20
-50.36299881727237
10
-86.550146651740192
20
-37.899682538784262
10
-86.11284169699789
20
-33.798042697568853
42
-0.27449607860663083
10
-80.751468953330772
20
-27.151428551440105
42
-0.025306226078755111
10
-78.282795144445117
20
-26.610033752182467
42
0.23599617789641308
10
-74.667006180539062
20
-23.980358948261987
42
0.15093522401501566
10
-74.086939576630684
20
-20.77220863532623
0
CIRCLE
5
107
100
AcDbEntity
8
0
100
AcDbCircle
10
40.141291293529655
20
-33.842372514555976
30
0
40
2.5
210
0
220
0
230
1
0
CIRCLE
5
108
100
AcDbEntity
8
0
100
AcDbCircle
10
40.141291293529662
20
33.842372514555976
30
0
40
2.5
210
0
220
0
230
1
0
CIRCLE
5
109
100
AcDbEntity
8
0
100
AcDbCircle
10
-40.141291293529655
20
-33.842372514555983
30
0
40
2.5
210
0
220
0
230
1
0
CIRCLE
5
110
100
AcDbEntity
8
0
100
AcDbCircle
10
-40.141291293529662
20
33.842372514555983
30
0
40
2.5
210
0
220
0
230
1
0
CIRCLE
5
111
100
AcDbEntity
8
0
100
AcDbCircle
10
30.309660125511222
20
-17.500572586647994
30
0
40
4.2499999999999982
210
0
220
0
230
1
0
CIRCLE
5
112
100
AcDbEntity
8
0
100
AcDbCircle
10
-0.0019617637345525907
20
34.999999945021187
30
0
40
4.25
210
0
220
0
230
1
0
CIRCLE
5
113
100
AcDbEntity
8
0
100
AcDbCircle
10
-30.309660125511222
20
-17.500572586647998
30
0
40
4.2499999999999982
210
0
220
0
230
1
0
CIRCLE
5
114
100
AcDbEntity
8
0
100
AcDbCircle
10
64.615050650078615
20
-46.469435077779728
30
0
40
6.25
210
0
220
0
230
1
0
LINE
5
115
100
AcDbEntity
8
0
100
AcDbLine
10
-0.062047051626419325
20
-74.730203876811942
30
0
11
-0.062047051626419325
21
99.584117959235456
31
0
0
LINE
5
116
100
AcDbEntity
8
0
100
AcDbLine
10
-129.17307825757075
20
0
30
0
11
131.56322197204756
21
0
31
0
0
CIRCLE
5
117
100
AcDbEntity
8
0
100
AcDbCircle
10
46.527393287122301
20
-53.945666787801571
30
0
40
6.25
210
0
220
0
230
1
0
CIRCLE
5
118
100
AcDbEntity
8
0
100
AcDbCircle
10
-46.651487390375138
20
-53.945666787801571
30
0
40
6.25
210
0
220
0
230
1
0
CIRCLE
5
119
100
AcDbEntity
8
0
100
AcDbCircle
10
-64.739144753331459
20
-46.469435077779728
30
0
40
6.25
210
0
220
0
230
1
0
CIRCLE
5
120
100
AcDbEntity
8
0
100
AcDbCircle
10
68.349878652220696
20
27.435471937255578
30
0
40
6.25
210
0
220
0
230
1
0
CIRCLE
5
121
100
AcDbEntity
8
0
100
AcDbCircle
10
45.149413210168056
20
40.450367185236111
30
0
40
6.25
210
0
220
0
230
1
0
CIRCLE
5
122
100
AcDbEntity
8
0
100
AcDbCircle
10
35.908511225837202
20
65.034653596379883
30
0
40
6.25
210
0
220
0
230
1
0
CIRCLE
5
123
100
AcDbEntity
8
0
100
AcDbCircle
10
-68.473972755473525
20
27.435471937255578
30
0
40
6.25
210
0
220
0
230
1
0
CIRCLE
5
124
100
AcDbEntity
8
0
100
AcDbCircle
10
-45.273507313420893
20
40.450367185236104
30
0
40
6.25
210
0
220
0
230
1
0
CIRCLE
5
125
100
AcDbEntity
8
0
100
AcDbCircle
10
-36.032605329090039
20
65.034653596379883
30
0
40
6.25
210
0
220
0
230
1
0
LWPOLYLINE
5
126
100
AcDbEntity
8
0
100
AcDbPolyline
90
4
70
1
43
0.0
10
-23.749999999999986
20
43.600000000000001
10
23.750000000000004
20
43.600000000000001
10
23.750000000000014
20
-43.600000000000001
10
-23.749999999999986
20
-43.600000000000001
0
LINE
5
127
100
AcDbEntity
8
0
100
AcDbLine
10
-23.749999999999986
20
43.600000000000001
30
0
11
23.750000000000014
21
-43.600000000000001
31
0
6
DASHED
0
LINE
5
128
100
AcDbEntity
8
0
100
AcDbLine
10
23.750000000000004
20
43.600000000000001
30
0
11
-23.749999999999986
21
-43.600000000000001
31
0
6
DASHED
0
LWPOLYLINE
5
129
100
AcDbEntity
8
0
100
AcDbPolyline
90
4
70
1
43
0.0
10
-23.749999999999986
20
-43.600000000000001
10
-16.749999999999986
20
-43.600000000000001
10
-16.749999999999986
20
-12.800000000000002
10
-23.749999999999986
20
-12.800000000000002
0
CIRCLE
5
130
100
AcDbEntity
8
0
100
AcDbCircle
10
-16.749999999999986
20
-12.800000000000002
30
0
40
1.5000000000000002
210
0
220
0
230
1
0
CIRCLE
5
131
100
AcDbEntity
8
0
100
AcDbCircle
10
7.7500000000000169
20
-12.800000000000002
30
0
40
1.5000000000000002
210
0
220
0
230
1
0
CIRCLE
5
132
100
AcDbEntity
8
0
100
AcDbCircle
10
7.7500000000000169
20
39.100000000000001
30
0
40
1.5000000000000002
210
0
220
0
230
1
0
CIRCLE
5
133
100
AcDbEntity
8
0
100
AcDbCircle
10
-16.749999999999986
20
39.100000000000001
30
0
40
1.5000000000000002
210
0
220
0
230
1
0
ARC
5
134
100
AcDbEntity
8
0
100
AcDbCircle
10
80.017552826882479
20
-51.591051413430833
30
0
40
8.0313120462291039
210
0
220
0
230
1
100
AcDbArc
50
-70.573154064354313
51
2.9536973157553308
0
LINE
5
135
100
AcDbEntity
8
0
100
AcDbLine
10
82.688791647539475
20
-59.165116131065588
30
0
11
52.541660535003196
21
-69.797476687972903
31
0
0
ARC
5
136
100
AcDbEntity
8
0
100
AcDbCircle
10
46.701328349216865
20
-53.237724109672499
30
0
40
17.55946711876129
210
0
220
0
230
1
100
AcDbArc
50
216.97011566848511
51
289.4268459356457
0
ARC
5
137
100
AcDbEntity
8
0
100
AcDbCircle
10
28.319524531997693
20
-67.074380900426135
30
0
40
5.4480052048087577
210
0
220
-0
230
1
100
AcDbArc
50
36.970115668484027
51
95.760153162814859
0
ARC
5
138
100
AcDbEntity
8
0
100
AcDbCircle
10
-0.19420814130547415
20
215.59324691748009
30
0
40
278.65412566922561
210
0
220
0
230
1
100
AcDbArc
50
264.29419573957699
51
275.76015316281348
0
ARC
5
139
100
AcDbEntity
8
0
100
AcDbCircle
10
-28.395257835974817
20
-66.65551535667349
30
0
40
5.0000000000000853
210
0
220
-0
230
1
100
AcDbArc
50
84.294195739575528
51
144.75571057779902
0
ARC
5
140
100
AcDbEntity
8
0
100
AcDbCircle
10
-46.675479474856303
20
-53.739063772834811
30
0
40
17.38305664301193
210
0
220
0
230
1
100
AcDbArc
50
251.66330889933369
51
324.75571057779905
0
LINE
5
141
100
AcDbEntity
8
0
100
AcDbLine
10
-52.144195789275059
20
-70.239481953189241
30
0
11
-83.055057338655331
21
-58.797706352183212
31
0
0
ARC
5
142
100
AcDbEntity
8
0
100
AcDbCircle
10
-84.790736435619593
20
-63.486780682193498
30
0
40
5.0000000000000044
210
0
220
-0
230
1
100
AcDbArc
50
69.687771234232315
51
72.79050208653166
0
ARC
5
143
100
AcDbEntity
8
0
100
AcDbCircle
10
-81.399786729861461
20
-52.538817046575808
30
0
40
6.4610840531682934
210
0
220
0
230
1
100
AcDbArc
50
166.94811607193293
51
252.79050208653155
0
ARC
5
144
100
AcDbEntity
8
0
100
AcDbCircle
10
-92.56478470126261
20
-49.950522632797309
30
0
40
5.0000000000000098
210
-0
220
0
230
1
100
AcDbArc
50
346.94811607193293
51
355.26799346030123
0
LINE
5
145
100
AcDbEntity
8
0
100
AcDbLine
10
-87.581827406920127
20
-50.362998817272377
30
0
11
-86.550146651740107
21
-37.899682538783495
31
0
0
LINE
5
146
100
AcDbEntity
8
0
100
AcDbLine
10
-86.550146651740107
20
-37.899682538783495
30
0
11
-86.112841696997947
21
-33.798042697569116
31
0
0
ARC
5
147
100
AcDbEntity
8
0
100
AcDbCircle
10
-77.834803580843783
20
-34.989739567707105
30
0
40
8.3633759022775855
210
0
220
0
230
1
100
AcDbArc
50
110.41042557190116
51
171.80804634978512
0
ARC
5
148
100
AcDbEntity
8
0
100
AcDbCircle
10
-74.172122429565306
20
-51.253121269996534
30
0
40
24.98358246087821
210
0
220
0
230
1
100
AcDbArc
50
99.470220362391899
51
105.26874257154935
0
ARC
5
149
100
AcDbEntity
8
0
100
AcDbCircle
10
-79.105469939246149
20
-21.678177490895134
30
0
40
4.9999999999999893
210
-0
220
0
230
1
100
AcDbArc
50
279.47022036239122
51
332.58473582319965
0
ARC
5
150
100
AcDbEntity
8
0
100
AcDbCircle
10
-79.569703806039882
20
-21.437384581880696
30
0
40
5.5229668327053751
210
-0
220
0
230
1
100
AcDbArc
50
-27.415264176800346
51
6.9173905306957897
0
LINE
5
151
100
AcDbEntity
8
0
100
AcDbLine
10
-74.08693957663067
20
-20.77220863532623
30
0
11
-77.870293034240291
21
11.91292822405063
31
0
0
ARC
5
152
100
AcDbEntity
8
0
100
AcDbCircle
10
-82.837129893094442
20
11.338009431934942
30
0
40
5.0000000000000009
210
0
220
-0
230
1
100
AcDbArc
50
6.6026882606794937
51
48.019225984237927
0
ARC
5
153
100
AcDbEntity
8
0
100
AcDbCircle
10
-68.439665453580048
20
27.338807860274041
30
0
40
16.524695877791643
210
0
220
0
230
1
100
AcDbArc
50
123.99713877283574
51
228.01922598423801
0
ARC
5
154
100
AcDbEntity
8
0
100
AcDbCircle
10
-80.475231493045186
20
45.184190533141958
30
0
40
5.0000000000000107
210
-0
220
0
230
1
100
AcDbArc
50
-56.002861227164239
51
26.908293225902064
0
ARC
5
155
100
AcDbEntity
8
0
100
AcDbCircle
10
-72.415192087582852
20
49.27474893149639
30
0
40
4.0386339248778915
210
0
220
0
230
1
100
AcDbArc
50
122.72092564493387
51
206.90829322590244
0
ARC
5
156
100
AcDbEntity
8
0
100
AcDbCircle
10
-77.301004163504658
20
56.879072937397908
30
0
40
4.9999999999999982
210
-0
220
0
230
1
100
AcDbArc
50
302.7209256449338
51
319.23330578161102
0
LINE
5
157
100
AcDbEntity
8
0
100
AcDbLine
10
-73.514130372389104
20
53.614170658590453
30
0
11
-61.194319489424906
21
67.903593422336527
31
0
0
ARC
5
158
100
AcDbEntity
8
0
100
AcDbCircle
10
-57.647372753152226
20
64.84554736090341
30
0
40
4.6832122377490037
210
0
220
-0
230
1
100
AcDbArc
50
77.520173202775311
51
139.23330578161139
0
ARC
5
159
100
AcDbEntity
8
0
100
AcDbCircle
10
-55.554870700011961
20
74.299966137269081
30
0
40
4.9999999999999991
210
0
220
0
230
1
100
AcDbArc
50
257.52017320277537
51
334.59868666013512
0
ARC
5
160
100
AcDbEntity
8
0
100
AcDbCircle
10
-35.900237729045053
20
64.966708128724079
30
0
40
16.758085905646421
210
0
220
-0
230
1
100
AcDbArc
50
25.175910705179923
51
154.59868666013517
0
LINE
5
161
100
AcDbEntity
8
0
100
AcDbLine
10
-20.734069669302464
20
72.095578277960144
30
0
11
-19.211570422845092
21
68.856568594907003
31
0
0
ARC
5
162
100
AcDbEntity
8
0
100
AcDbCircle
10
-14.686540492477997
20
70.983562748467847
30
0
40
5.0000000000000009
210
0
220
0
230
1
100
AcDbArc
50
205.17591070517992
51
269.99999999999994
0
LINE
5
163
100
AcDbEntity
8
0
100
AcDbLine
10
-14.686540492478002
20
65.983562748467847
30
0
11
14.990628388783394
21
65.983562748467847
31
0
0
ARC
5
164
100
AcDbEntity
8
0
100
AcDbCircle
10
14.990628388783394
20
70.983562748467847
30
0
40
5
210
0
220
0
230
1
100
AcDbArc
50
270
51
343.94653736274955
0
ARC
5
165
100
AcDbEntity
8
0
100
AcDbCircle
10
35.900237729045053
20
64.966708128724093
30
0
40
16.758085905646418
210
0
220
-0
230
1
100
AcDbArc
50
25.401313339864789
51
163.94653736274961
0
ARC
5
166
100
AcDbEntity
8
0
100
AcDbCircle
10
55.554870700011975
20
74.299966137269081
30
0
40
4.9999999999999947
210
0
220
0
230
1
100
AcDbArc
50
205.4013133398648
51
282.47982679722452
0
ARC
5
167
100
AcDbEntity
8
0
100
AcDbCircle
10
57.647372753152204
20
64.845547360903353
30
0
40
4.6832122377490508
210
0
220
-0
230
1
100
AcDbArc
50
40.766694218389013
51
102.47982679722422
0
LINE
5
168
100
AcDbEntity
8
0
100
AcDbLine
10
61.194319489424906
20
67.903593422336527
30
0
11
73.514130372388919
21
53.614170658590652
31
0
0
ARC
5
169
100
AcDbEntity
8
0
100
AcDbCircle
10
77.301004163504487
20
56.879072937398092
30
0
40
5.0000000000000009
210
0
220
0
230
1
100
AcDbArc
50
220.76669421838869
51
237.27907435506739
0
ARC
5
170
100
AcDbEntity
8
0
100
AcDbCircle
10
72.415192087582824
20
49.274748931496397
30
0
40
4.0386339248779768
210
-0
220
0
230
1
100
AcDbArc
50
-26.908293225902586
51
57.279074355067692
0
ARC
5
171
100
AcDbEntity
8
0
100
AcDbCircle
10
80.475231493045214
20
45.184190533141887
30
0
40
5.0000000000000018
210
0
220
0
230
1
100
AcDbArc
50
153.0917067740975
51
236.00286122716406
0
ARC
5
172
100
AcDbEntity
8
0
100
AcDbCircle
10
68.439665453580062
20
27.338807860274027
30
0
40
16.524695877791608
210
-0
220
0
230
1
100
AcDbArc
50
-45.541652686901323
51
56.002861227164189
0
ARC
5
173
100
AcDbEntity
8
0
100
AcDbCircle
10
83.515359313448158
20
11.975345123151433
30
0
40
5
210
0
220
0
230
1
100
AcDbArc
50
134.45834731309864
51
172.37459764815529
0
LINE
5
174
100
AcDbEntity
8
0
100
AcDbLine
10
78.559575281718722
20
12.63882430960377
30
0
11
74.09557763858129
21
-20.704509873687385
31
0
0
ARC
5
175
100
AcDbEntity
8
0
100
AcDbCircle
10
79.569703806039868
20
-21.4373845818807
30
0
40
5.5229668327054293
210
0
220
0
230
1
100
AcDbArc
50
172.37459764815543
51
207.41526417681297
0
ARC
5
176
100
AcDbEntity
8
0
100
AcDbCircle
10
79.105469939246149
20
-21.678177490895262
30
0
40
4.9999999999999973
210
0
220
0
230
1
100
AcDbArc
50
207.41526417681297
51
260.52977963760878
0
ARC
5
177
100
AcDbEntity
8
0
100
AcDbCircle
10
74.172122429566954
20
-51.253121269989599
30
0
40
24.983582460871009
210
0
220
-0
230
1
100
AcDbArc
50
74.731257428448728
51
80.529779637609181
0
ARC
5
178
100
AcDbEntity
8
0
100
AcDbCircle
10
77.83480358084374
20
-34.989739567707147
30
0
40
8.3633759022776335
210
0
220
-0
230
1
100
AcDbArc
50
8.1919536501904542
51
69.589574428094494
0
LINE
5
179
100
AcDbEntity
8
0
100
AcDbLine
10
86.11284169699843
20
-33.798042697572683
30
0
11
86.547641714535558
21
-37.876187835312891
31
0
0
LINE
5
180
100
AcDbEntity
8
0
100
AcDbLine
10
86.547569614474909
20
-37.876195915465935
30
0
11
88.038195300260071
21
-51.177206637994608
31
0
0
LWPOLYLINE
5
181
100
AcDbEntity
8
0
100
AcDbPolyline
90
32
70
1
43
0.0
10
84.351806859301291
20
-63.880450732708276
42
0.33588917050359701
10
93.021799198194003
20
-50.751605190956496
10
91.519463700951164
20
-37.346106581735199
10
91.076056279490118
20
-33.187229518868378
42
0.28141073433230285
10
82.2690614080458
20
-22.383504085713653
42
0.027045095798338827
10
79.105469939246149
20
-21.678177490895262
42
-0.15409637076409971
10
79.051361670310726
20
-21.367989060139713
10
83.515359313448158
20
11.975345123151433
42
0.47453825470143041
10
80.475231493045214
20
45.184190533141887
42
0.38480234161541987
10
77.301004163504487
20
56.879072937398092
10
64.981193280540467
20
71.168495701143954
42
0.2759770493437616
10
55.554870700011975
20
74.299966137269081
42
0.69078941769041435
10
14.990628388783394
20
70.983562748467847
10
-14.686540492477997
20
70.983562748467847
10
-16.209039738935374
20
74.222572431520973
42
0.63353510921884393
10
-55.554870700011961
20
74.299966137269081
42
0.27597704934376321
10
-64.981193280540467
20
71.168495701143968
10
-77.301004163504658
20
56.879072937397908
42
0.38480234161541155
10
-80.475231493045186
20
45.184190533141958
42
0.48785189347270302
10
-82.837129893094442
20
11.338009431934942
10
-79.051361670310783
20
-21.367989060139717
42
-0.15409637076404378
10
-79.105469939246149
20
-21.678177490895131
42
0.027045095798324419
10
-82.269061408044806
20
-22.383504085713291
42
0.28141073433224129
10
-91.076056279489563
20
-33.187229518864228
10
-91.528230981166914
20
-37.428338043880878
10
-92.56478470126261
20
-49.950522632797309
42
0.39311625938696326
10
-84.790736435619593
20
-63.486780682193498
10
-53.804132316247653
20
-74.956592690010893
42
0.33133323921286495
10
-28.395257835974821
20
-66.655515356673504
42
0.050071459968883264
10
28.274560769821999
20
-66.628637786484092
42
-0.26229862799596965
10
28.677457975014441
20
-66.804951291982803
42
0.32712438047933939
10
54.204675746765005
20
-74.512811289615598
0
CIRCLE
5
182
100
AcDbEntity
8
0
100
AcDbCircle
10
33.258467518277889
20
49.775548131288154
30
0
40
1.6000000000000032
210
0
220
0
230
1
0
CIRCLE
5
183
100
AcDbEntity
8
0
100
AcDbCircle
10
36.40587416336249
20
-33.155786661899228
30
0
40
1.6000000000000032
210
0
220
0
230
1
0
CIRCLE
5
184
100
AcDbEntity
8
0
100
AcDbCircle
10
74.830611131176084
20
-14.191945137908061
30
0
40
1.6000000000000032
210
0
220
0
230
1
0
CIRCLE
5
185
100
AcDbEntity
8
0
100
AcDbCircle
10
-36.529968266615327
20
-33.155786661899228
30
0
40
1.6000000000000032
210
0
220
0
230
1
0
CIRCLE
5
186
100
AcDbEntity
8
0
100
AcDbCircle
10
-74.954705234428914
20
-14.191945137908064
30
0
40
1.6000000000000032
210
0
220
0
230
1
0
CIRCLE
5
187
100
AcDbEntity
8
0
100
AcDbCircle
10
-33.382561621530733
20
49.775548131288154
30
0
40
1.6000000000000032
210
0
220
0
230
1
0
CIRCLE
5
188
100
AcDbEntity
8
0
100
AcDbCircle
10
50.163811497305993
20
-38.145651196745376
30
0
40
8.5000000000000018
210
0
220
0
230
1
0
CIRCLE
5
189
100
AcDbEntity
8
0
100
AcDbCircle
10
50.163811497305993
20
-38.145651196745376
30
0
40
3.5000000000000009
210
0
220
0
230
1
0
CIRCLE
5
190
100
AcDbEntity
8
0
100
AcDbCircle
10
-50.28790560055883
20
-38.145651196745376
30
0
40
3.5000000000000009
210
0
220
0
230
1
0
CIRCLE
5
191
100
AcDbEntity
8
0
100
AcDbCircle
10
-50.28790560055883
20
-38.145651196745376
30
0
40
8.5000000000000018
210
0
220
0
230
1
0
LINE
5
192
100
AcDbEntity
8
0
100
AcDbLine
10
-86.112841696997947
20
-33.798042697569116
30
0
11
-71.872840616812965
21
-33.798042697569116
31
0
0
LINE
5
193
100
AcDbEntity
8
0
100
AcDbLine
10
-71.872840616812965
20
-33.798042697569116
30
0
11
-74.172122429565306
21
-56.483529527756211
31
0
0
LINE
5
194
100
AcDbEntity
8
0
100
AcDbLine
10
-74.172122429565306
20
-56.483529527756211
30
0
11
-87.581827406920127
21
-50.362998817272377
31
0
0
LINE
5
195
100
AcDbEntity
8
0
100
AcDbLine
10
0
20
-69.709741776669546
30
0
11
0
21
81.959113851715415
31
0
0
LWPOLYLINE
5
196
100
AcDbEntity
8
0
100
AcDbPolyline
90
4
70
1
43
0.0
10
71.872840616812965
20
-33.798042697569116
10
74.172122429565306
20
-56.483529527756211
10
86.568891524178582
20
-50.825328539554882
10
84.408556864821918
20
-33.798042697569116
0
LINE
5
197
100
AcDbEntity
8
0
100
AcDbLine
10
57.647372753152204
20
64.845547360903353
30
0
11
43.031835074311502
21
52.244572280720988
31
0
0
LINE
5
198
100
AcDbEntity
8
0
100
AcDbLine
10
43.031835074311502
20
52.244572280720988
30
0
11
57.647372753152204
21
37.039042249522879
31
0
0
LINE
5
199
100
AcDbEntity
8
0
100
AcDbLine
10
57.647372753152204
20
37.039042249522879
30
0
11
74.598266052563872
21
52.672505844902219
31
0
0
LINE
5
200
100
AcDbEntity
8
0
100
AcDbLine
10
57.647372753152204
20
64.845547360903353
30
0
11
61.194319489424906
21
67.903593422336527
31
0
0
LINE
5
201
100
AcDbEntity
8
0
100
AcDbLine
10
-43.031835074311502
20
52.244572280720988
30
0
11
-57.647372753152204
21
37.039042249522879
31
0
0
LINE
5
202
100
AcDbEntity
8
0
100
AcDbLine
10
-57.647372753152204
20
64.845547360903339
30
0
11
-43.031835074311502
21
52.244572280720988
31
0
0
LINE
5
203
100
AcDbEntity
8
0
100
AcDbLine
10
-57.647372753152204
20
64.845547360903339
30
0
11
-61.194319489424906
21
67.903593422336542
31
0
0
LINE
5
204
100
AcDbEntity
8
0
100
AcDbLine
10
-57.647372753152204
20
37.039042249522879
30
0
11
-74.598266052563872
21
52.672505844902219
31
0
0
LWPOLYLINE
5
205
100
AcDbEntity
8
0
100
AcDbPolyline
90
12
70
1
43
0.0
10
19.25
20
26.500000000000004
10
-19.25
20
26.500000000000004
10
-9.75
20
26.500000000000004
10
-9.75
20
12.000000000000002
10
-19.25
20
12.000000000000002
10
-19.25
20
26.500000000000004
10
-19.25
20
-26.500000000000004
10
-4.25
20
-26.500000000000004
10
-4.25
20
-24.000000000000004
10
-19.25
20
-24.000000000000004
10
-19.25
20
-26.500000000000004
10
19.25
20
-26.500000000000004
0
LINE
5
206
100
AcDbEntity
8
0
100
AcDbLine
10
19.25
20
26.500000000000004
30
0
11
-19.25
21
-26.500000000000004
31
0
6
DASHED
0
LINE
5
207
100
AcDbEntity
8
0
100
AcDbLine
10
-19.25
20
26.500000000000004
30
0
11
19.25
21
-26.500000000000004
31
0
6
DASHED
0
CIRCLE
5
208
100
AcDbEntity
8
0
100
AcDbCircle
10
-4.25
20
-24.000000000000004
30
0
40
1.6000000000000003
210
0
220
0
230
1
0
CIRCLE
5
209
100
AcDbEntity
8
0
100
AcDbCircle
10
-9.75
20
12.000000000000002
30
0
40
1.6000000000000003
210
0
220
0
230
1
0
LINE
5
210
100
AcDbEntity
8
0
100
AcDbLine
10
46.66690181970975
20
-37.902439641727042
30
0
11
45.418829542234995
21
-37.745952674808258
31
0
0
LINE
5
211
100
AcDbEntity
8
0
100
AcDbLine
10
45.418829542234995
20
-37.745952674808258
30
0
11
45.391843177389255
21
-37.961184233684762
31
0
0
LINE
5
212
100
AcDbEntity
8
0
100
AcDbLine
10
45.391843177389262
20
-37.961184233684762
30
0
11
45.202331085188973
21
-37.937422651092078
31
0
0
LINE
5
213
100
AcDbEntity
8
0
100
AcDbLine
10
45.202331085188959
20
-37.937422651092078
30
0
11
45.229317450034699
21
-37.722191092215581
31
0
0
LINE
5
214
100
AcDbEntity
8
0
100
AcDbLine
10
45.229317450034699
20
-37.722191092215581
30
0
11
45.076354114248637
21
-37.703012100021816
31
0
0
SPLINE
5
215
100
AcDbEntity
8
0
100
AcDbSpline
70
0
71
2
72
6
73
3
74
0
42
0.000000001
43
0.0000000001
44
0.0000000001
40
0
40
0
40
0
40
1
40
1
40
1
10
45.076354114248637
20
-37.703012100021816
30
0
10
44.931512839329919
20
-37.684851475668765
30
0
10
44.864347317419629
20
-37.650306242501074
30
0
0
SPLINE
5
216
100
AcDbEntity
8
0
100
AcDbSpline
70
0
71
2
72
6
73
3
74
0
42
0.000000001
43
0.0000000001
44
0.0000000001
40
0
40
0
40
0
40
1
40
1
40
1
10
44.864347317419629
20
-37.650306242501074
30
0
10
44.774004136062253
20
-37.603230353119983
30
0
10
44.726237143546179
20
-37.507182727762995
30
0
0
SPLINE
5
217
100
AcDbEntity
8
0
100
AcDbSpline
70
0
71
2
72
6
73
3
74
0
42
0.000000001
43
0.0000000001
44
0.0000000001
40
0
40
0
40
0
40
1
40
1
40
1
10
44.726237143546179
20
-37.507182727762995
30
0
10
44.678470003176152
20
-37.411135083867649
30
0
10
44.698497625967988
20
-37.251403437952433
30
0
0
SPLINE
5
218
100
AcDbEntity
8
0
100
AcDbSpline
70
0
71
2
72
6
73
3
74
0
42
0.000000001
43
0.0000000001
44
0.0000000001
40
0
40
0
40
0
40
1
40
1
40
1
10
44.698497625967988
20
-37.251403437952433
30
0
10
44.711396766566679
20
-37.148525478838891
30
0
10
44.751377404557999
20
-37.027044052899065
30
0
0
LINE
5
219
100
AcDbEntity
8
0
100
AcDbLine
10
44.751377404557999
20
-37.027044052899065
30
0
11
44.959319042515311
21
-37.090239721108745
31
0
0
SPLINE
5
220
100
AcDbEntity
8
0
100
AcDbSpline
70
0
71
2
72
6
73
3
74
0
42
0.000000001
43
0.0000000001
44
0.0000000001
40
0
40
0
40
0
40
1
40
1
40
1
10
44.959319042515311
20
-37.090239721108745
30
0
10
44.936277785512274
20
-37.164347326363504
30
0
10
44.927791507339059
20
-37.23203020587404
30
0
0
SPLINE
5
221
100
AcDbEntity
8
0
100
AcDbSpline
70
0
71
2
72
6
73
3
74
0
42
0.000000001
43
0.0000000001
44
0.0000000001
40
0
40
0
40
0
40
1
40
1
40
1
10
44.927791507339059
20
-37.23203020587404
30
0
10
44.913874012803426
20
-37.343030114964463
30
0
10
44.955481368178781
20
-37.394994856851483
30
0
0
SPLINE
5
222
100
AcDbEntity
8
0
100
AcDbSpline
70
0
71
2
72
6
73
3
74
0
42
0.000000001
43
0.0000000001
44
0.0000000001
40
0
40
0
40
0
40
1
40
1
40
1
10
44.955481368178781
20
-37.394994856851483
30
0
10
44.997088718919542
20
-37.446959635701994
30
0
10
45.12703991854967
20
-37.46325329869299
30
0
0
LINE
5
223
100
AcDbEntity
8
0
100
AcDbLine
10
45.12703991854967
20
-37.46325329869299
30
0
11
45.259698323948292
21
-37.479886399092521
31
0
0
LINE
5
224
100
AcDbEntity
8
0
100
AcDbLine
10
45.259698323948292
20
-37.479886399092521
30
0
11
45.294831513916961
21
-37.199679291225756
31
0
0
LINE
5
225
100
AcDbEntity
8
0
100
AcDbLine
10
45.294831513916975
20
-37.199679291225749
30
0
11
45.484343606117264
21
-37.223440873818433
31
0
0
LINE
5
226
100
AcDbEntity
8
0
100
AcDbLine
10
45.484343606117264
20
-37.223440873818433
30
0
11
45.449210416148595
21
-37.503647981685205
31
0
0
LINE
5
227
100
AcDbEntity
8
0
100
AcDbLine
10
45.449210416148595
20
-37.503647981685205
30
0
11
46.69728269362335
21
-37.660134948603982
31
0
0
LINE
5
228
100
AcDbEntity
8
0
100
AcDbLine
10
46.697282693623343
20
-37.660134948603982
30
0
11
46.66690181970975
21
-37.902439641727042
31
0
0
LINE
5
229
100
AcDbEntity
8
0
100
AcDbLine
10
47.207650062848778
20
-36.23819679578007
30
0
11
47.0180426629937
21
-36.141537038194961
31
0
0
SPLINE
5
230
100
AcDbEntity
8
0
100
AcDbSpline
70
0
71
2
72
6
73
3
74
0
42
0.000000001
43
0.0000000001
44
0.0000000001
40
0
40
0
40
0
40
1
40
1
40
1
10
47.0180426629937
20
-36.141537038194961
30
0
10
47.159988201450844
20
-36.403781025872348
30
0
10
47.028010502371068
20
-36.66266796068944
30
0
0
SPLINE
5
231
100
AcDbEntity
8
0
100
AcDbSpline
70
0
71
2
72
6
73
3
74
0
42
0.000000001
43
0.0000000001
44
0.0000000001
40
0
40
0
40
0
40
1
40
1
40
1
10
47.028010502371068
20
-36.66266796068944
30
0
10
46.969766798817083
20
-36.776918580230635
30
0
10
46.875512922010742
20
-36.853670248140588
30
0
0
SPLINE
5
232
100
AcDbEntity
8
0
100
AcDbSpline
70
0
71
2
72
6
73
3
74
0
42
0.000000001
43
0.0000000001
44
0.0000000001
40
0
40
0
40
0
40
1
40
1
40
1
10
46.875512922010742
20
-36.853670248140588
30
0
10
46.781258762772666
20
-36.930421813884323
30
0
10
46.690542942351165
20
-36.944662401965296
30
0
0
SPLINE
5
233
100
AcDbEntity
8
0
100
AcDbSpline
70
0
71
2
72
6
73
3
74
0
42
0.000000001
43
0.0000000001
44
0.0000000001
40
0
40
0
40
0
40
1
40
1
40
1
10
46.690542942351165
20
-36.944662401965296
30
0
10
46.59982725468582
20
-36.958903057723887
30
0
10
46.493894223008105
20
-36.929400425604364
30
0
0
SPLINE
5
234
100
AcDbEntity
8
0
100
AcDbSpline
70
0
71
2
72
6
73
3
74
0
42
0.000000001
43
0.0000000001
44
0.0000000001
40
0
40
0
40
0
40
1
40
1
40
1
10
46.493894223008105
20
-36.929400425604364
30
0
10
46.422660663426029
20
-36.909930697534449
30
0
10
46.282885945297387
20
-36.838675090521392
30
0
0
LINE
5
235
100
AcDbEntity
8
0
100
AcDbLine
10
46.282885945297387
20
-36.838675090521392
30
0
11
45.483131874021339
21
-36.430969300998754
31
0
0
LINE
5
236
100
AcDbEntity
8
0
100
AcDbLine
10
45.483131874021339
20
-36.430969300998754
30
0
11
45.594662334909785
21
-36.212191588101277
31
0
0
LINE
5
237
100
AcDbEntity
8
0
100
AcDbLine
10
45.594662334909785
20
-36.212191588101277
30
0
11
46.310551681513566
21
-36.577144067558173
31
0
0
SPLINE
5
238
100
AcDbEntity
8
0
100
AcDbSpline
70
0
71
2
72
6
73
3
74
0
42
0.000000001
43
0.0000000001
44
0.0000000001
40
0
40
0
40
0
40
1
40
1
40
1
10
46.310551681513573
20
-36.577144067558166
30
0
10
46.481927544447288
20
-36.664509589050333
30
0
10
46.548299448963732
20
-36.681500878174184
30
0
0
SPLINE
5
239
100
AcDbEntity
8
0
100
AcDbSpline
70
0
71
2
72
6
73
3
74
0
42
0.000000001
43
0.0000000001
44
0.0000000001
40
0
40
0
40
0
40
1
40
1
40
1
10
46.548299448963732
20
-36.681500878174184
30
0
10
46.645128634882212
20
-36.704831165437142
30
0
10
46.72843230612272
20
-36.663076751447754
30
0
0
SPLINE
5
240
100
AcDbEntity
8
0
100
AcDbSpline
70
0
71
2
72
6
73
3
74
0
42
0.000000001
43
0.0000000001
44
0.0000000001
40
0
40
0
40
0
40
1
40
1
40
1
10
46.72843230612272
20
-36.663076751447754
30
0
10
46.811735994282635
20
-36.621322304269327
30
0
10
46.861924689838844
20
-36.522872356697789
30
0
0
SPLINE
5
241
100
AcDbEntity
8
0
100
AcDbSpline
70
0
71
2
72
6
73
3
74
0
42
0.000000001
43
0.0000000001
44
0.0000000001
40
0
40
0
40
0
40
1
40
1
40
1
10
46.861924689838844
20
-36.522872356697789
30
0
10
46.912113402314468
20
-36.424422375937205
30
0
10
46.905665684539102
20
-36.312412775678652
30
0
0
SPLINE
5
242
100
AcDbEntity
8
0
100
AcDbSpline
70
0
71
2
72
6
73
3
74
0
42
0.000000001
43
0.0000000001
44
0.0000000001
40
0
40
0
40
0
40
1
40
1
40
1
10
46.905665684539102
20
-36.312412775678652
30
0
10
46.899217800168756
20
-36.200403174120545
30
0
10
46.830593029805563
20
-36.120245541126749
30
0
0
SPLINE
5
243
100
AcDbEntity
8
0
100
AcDbSpline
70
0
71
2
72
6
73
3
74
0
42
0.000000001
43
0.0000000001
44
0.0000000001
40
0
40
0
40
0
40
1
40
1
40
1
10
46.830593029805563
20
-36.120245541126749
30
0
10
46.761968259442369
20
-36.040087908132953
30
0
10
46.596669442726281
20
-35.955820397660816
30
0
0
LINE
5
244
100
AcDbEntity
8
0
100
AcDbLine
10
46.596669442726281
20
-35.955820397660816
30
0
11
45.905088812017638
21
-35.603260232994515
31
0
0
LINE
5
245
100
AcDbEntity
8
0
100
AcDbLine
10
45.905088812017638
20
-35.603260232994522
30
0
11
46.016619272906077
21
-35.384482520097038
31
0
0
LINE
5
246
100
AcDbEntity
8
0
100
AcDbLine
10
46.016619272906077
20
-35.384482520097038
30
0
11
47.307407865292731
21
-36.042512283329287
31
0
0
LINE
5
247
100
AcDbEntity
8
0
100
AcDbLine
10
47.307407865292731
20
-36.042512283329287
30
0
11
47.207650062848785
21
-36.23819679578007
31
0
0
LINE
5
248
100
AcDbEntity
8
0
100
AcDbLine
10
47.56074169735524
20
-35.732063981006746
30
0
11
46.677730409166386
21
-34.583399789667062
31
0
0
LINE
5
249
100
AcDbEntity
8
0
100
AcDbLine
10
46.677730409166394
20
-34.583399789667062
30
0
11
46.852950376564252
21
-34.44870314786791
31
0
0
LINE
5
250
100
AcDbEntity
8
0
100
AcDbLine
10
46.852950376564245
20
-34.44870314786791
30
0
11
46.978500956820248
21
-34.612025471909533
31
0
0
SPLINE
5
251
100
AcDbEntity
8
0
100
AcDbSpline
70
0
71
2
72
6
73
3
74
0
42
0.000000001
43
0.0000000001
44
0.0000000001
40
0
40
0
40
0
40
1
40
1
40
1
10
46.978500956820248
20
-34.612025471909533
30
0
10
46.959543052816066
20
-34.32546372065481
30
0
10
47.198577687665669
20
-34.141710903746564
30
0
0
SPLINE
5
252
100
AcDbEntity
8
0
100
AcDbSpline
70
0
71
2
72
6
73
3
74
0
42
0.000000001
43
0.0000000001
44
0.0000000001
40
0
40
0
40
0
40
1
40
1
40
1
10
47.198577687665669
20
-34.141710903746564
30
0
10
47.302411735856687
20
-34.061890676614659
30
0
10
47.41816630977651
20
-34.032273399884076
30
0
0
SPLINE
5
253
100
AcDbEntity
8
0
100
AcDbSpline
70
0
71
2
72
6
73
3
74
0
42
0.000000001
43
0.0000000001
44
0.0000000001
40
0
40
0
40
0
40
1
40
1
40
1
10
47.41816630977651
20
-34.032273399884076
30
0
10
47.533920915443638
20
-34.002656286700685
30
0
10
47.623746861633911
20
-34.029967617571998
30
0
0
SPLINE
5
254
100
AcDbEntity
8
0
100
AcDbSpline
70
0
71
2
72
6
73
3
74
0
42
0.000000001
43
0.0000000001
44
0.0000000001
40
0
40
0
40
0
40
1
40
1
40
1
10
47.623746861633911
20
-34.029967617571998
30
0
10
47.713572898640912
20
-34.05727906658214
30
0
10
47.794901104803074
20
-34.127259309457926
30
0
0
SPLINE
5
255
100
AcDbEntity
8
0
100
AcDbSpline
70
0
71
2
72
6
73
3
74
0
42
0.000000001
43
0.0000000001
44
0.0000000001
40
0
40
0
40
0
40
1
40
1
40
1
10
47.794901104803074
20
-34.127259309457926
30
0
10
47.847290177679589
20
-34.173024850624813
30
0
10
47.951222835568487
20
-34.308225525887522
30
0
0
LINE
5
256
100
AcDbEntity
8
0
100
AcDbLine
10
47.951222835568487
20
-34.308225525887522
30
0
11
48.494166629161917
21
-35.014513318527293
31
0
0
LINE
5
257
100
AcDbEntity
8
0
100
AcDbLine
10
48.494166629161917
20
-35.014513318527293
30
0
11
48.299477737118018
21
-35.164176284131926
31
0
0
LINE
5
258
100
AcDbEntity
8
0
100
AcDbLine
10
48.299477737118025
20
-35.164176284131926
30
0
11
47.762354114970194
21
-34.465459654643126
31
0
0
SPLINE
5
259
100
AcDbEntity
8
0
100
AcDbSpline
70
0
71
2
72
6
73
3
74
0
42
0.000000001
43
0.0000000001
44
0.0000000001
40
0
40
0
40
0
40
1
40
1
40
1
10
47.762354114970194
20
-34.465459654643126
30
0
10
47.670893408721994
20
-34.346483102941924
30
0
10
47.602865043425325
20
-34.304996303552542
30
0
0
SPLINE
5
260
100
AcDbEntity
8
0
100
AcDbSpline
70
0
71
2
72
6
73
3
74
0
42
0.000000001
43
0.0000000001
44
0.0000000001
40
0
40
0
40
0
40
1
40
1
40
1
10
47.602865043425325
20
-34.304996303552542
30
0
10
47.534836768945389
20
-34.263509622301996
30
0
10
47.449948527043389
20
-34.272840653426989
30
0
0
SPLINE
5
261
100
AcDbEntity
8
0
100
AcDbSpline
70
0
71
2
72
6
73
3
74
0
42
0.000000001
43
0.0000000001
44
0.0000000001
40
0
40
0
40
0
40
1
40
1
40
1
10
47.449948527043389
20
-34.272840653426989
30
0
10
47.36506013525527
20
-34.282171611821525
30
0
10
47.287184613879354
20
-34.342036770818353
30
0
0
SPLINE
5
262
100
AcDbEntity
8
0
100
AcDbSpline
70
0
71
2
72
6
73
3
74
0
42
0.000000001
43
0.0000000001
44
0.0000000001
40
0
40
0
40
0
40
1
40
1
40
1
10
47.287184613879354
20
-34.342036770818353
30
0
10
47.162800080060393
20
-34.437654748871758
30
0
10
47.133182707289109
20
-34.586038869805343
30
0
0
SPLINE
5
263
100
AcDbEntity
8
0
100
AcDbSpline
70
0
71
2
72
6
73
3
74
0
42
0.000000001
43
0.0000000001
44
0.0000000001
40
0
40
0
40
0
40
1
40
1
40
1
10
47.133182707289109
20
-34.586038869805343
30
0
10
47.10356533451781
20
-34.734422990738928
30
0
10
47.273183368257506
20
-34.95507040959793
30
0
0
LINE
5
264
100
AcDbEntity
8
0
100
AcDbLine
10
47.273183368257506
20
-34.95507040959793
30
0
11
47.755430530329726
21
-35.582401060810476
31
0
0
LINE
5
265
100
AcDbEntity
8
0
100
AcDbLine
10
47.755430530329726
20
-35.582401060810476
30
0
11
47.56074169735524
21
-35.732063981006746
31
0
0
LINE
5
266
100
AcDbEntity
8
0
100
AcDbLine
10
48.853859860239702
20
-34.859748717381429
30
0
11
48.39045970061661
21
-32.9141741463946
31
0
0
LINE
5
267
100
AcDbEntity
8
0
100
AcDbLine
10
48.390459700616617
20
-32.9141741463946
30
0
11
48.629343338377069
21
-32.857276447627193
31
0
0
LINE
5
268
100
AcDbEntity
8
0
100
AcDbLine
10
48.629343338377062
20
-32.857276447627193
30
0
11
48.89360155878785
21
-33.966758313631814
31
0
0
LINE
5
269
100
AcDbEntity
8
0
100
AcDbLine
10
48.89360155878785
20
-33.966758313631814
30
0
11
49.322405067500121
21
-33.25877967035111
31
0
0
LINE
5
270
100
AcDbEntity
8
0
100
AcDbLine
10
49.322405067500114
20
-33.25877967035111
30
0
11
49.631626630135969
21
-33.185128768647729
31
0
0
LINE
5
271
100
AcDbEntity
8
0
100
AcDbLine
10
49.631626630135969
20
-33.185128768647729
30
0
11
49.217354027781859
21
-33.836354461310592
31
0
0
LINE
5
272
100
AcDbEntity
8
0
100
AcDbLine
10
49.217354027781859
20
-33.836354461310592
30
0
11
50.021735408531129
21
-34.581582193430798
31
0
0
LINE
5
273
100
AcDbEntity
8
0
100
AcDbLine
10
50.021735408531129
20
-34.581582193430798
30
0
11
49.727112280056652
21
-34.651756016012406
31
0
0
LINE
5
274
100
AcDbEntity
8
0
100
AcDbLine
10
49.727112280056652
20
-34.651756016012406
30
0
11
49.089647782860872
21
-34.042074222056115
31
0
0
LINE
5
275
100
AcDbEntity
8
0
100
AcDbLine
10
49.089647782860872
20
-34.042074222056115
30
0
11
48.959666096627558
21
-34.244128707654667
31
0
0
LINE
5
276
100
AcDbEntity
8
0
100
AcDbLine
10
48.959666096627544
20
-34.24412870765466
30
0
11
49.092743498000146
21
-34.802851018614021
31
0
0
LINE
5
277
100
AcDbEntity
8
0
100
AcDbLine
10
49.092743498000154
20
-34.802851018614021
30
0
11
48.853859860239702
21
-34.859748717381429
31
0
0
LINE
5
278
100
AcDbEntity
8
0
100
AcDbLine
10
50.129888689050134
20
-35.157306882737338
30
0
11
50.140917693453261
21
-34.925400694726378
31
0
0
SPLINE
5
279
100
AcDbEntity
8
0
100
AcDbSpline
70
0
71
2
72
6
73
3
74
0
42
0.000000001
43
0.0000000001
44
0.0000000001
40
0
40
0
40
0
40
1
40
1
40
1
10
50.140917693453247
20
-34.925400694726378
30
0
10
50.216719271450707
20
-34.960177274112453
30
0
10
50.275928147757647
20
-34.9700556943192
30
0
0
SPLINE
5
280
100
AcDbEntity
8
0
100
AcDbSpline
70
0
71
2
72
6
73
3
74
0
42
0.000000001
43
0.0000000001
44
0.0000000001
40
0
40
0
40
0
40
1
40
1
40
1
10
50.275928147757647
20
-34.9700556943192
30
0
10
50.356667537901664
20
-34.983526269557686
30
0
10
50.409601314296488
20
-34.964695690422239
30
0
0
SPLINE
5
281
100
AcDbEntity
8
0
100
AcDbSpline
70
0
71
2
72
6
73
3
74
0
42
0.000000001
43
0.0000000001
44
0.0000000001
40
0
40
0
40
0
40
1
40
1
40
1
10
50.409601314296488
20
-34.964695690422239
30
0
10
50.46253513973565
20
-34.945864817326765
30
0
10
50.501567632831446
20
-34.902584813626753
30
0
0
SPLINE
5
282
100
AcDbEntity
8
0
100
AcDbSpline
70
0
71
2
72
6
73
3
74
0
42
0.000000001
43
0.0000000001
44
0.0000000001
40
0
40
0
40
0
40
1
40
1
40
1
10
50.501567632831446
20
-34.902584813626753
30
0
10
50.530505519439458
20
-34.870068898535166
30
0
10
50.605662962244821
20
-34.73461511467211
30
0
0
SPLINE
5
283
100
AcDbEntity
8
0
100
AcDbSpline
70
0
71
2
72
6
73
3
74
0
42
0.000000001
43
0.0000000001
44
0.0000000001
40
0
40
0
40
0
40
1
40
1
40
1
10
50.605662962244821
20
-34.73461511467211
30
0
10
50.615758908506649
20
-34.715552601234485
30
0
10
50.637071939202436
20
-34.678998136181889
30
0
0
LINE
5
284
100
AcDbEntity
8
0
100
AcDbLine
10
50.637071939202436
20
-34.678998136181889
30
0
11
50.333650579925546
21
-33.15674234126751
31
0
0
LINE
5
285
100
AcDbEntity
8
0
100
AcDbLine
10
50.333650579925553
20
-33.15674234126751
30
0
11
50.594707917813153
21
-33.200297197271517
31
0
0
LINE
5
286
100
AcDbEntity
8
0
100
AcDbLine
10
50.594707917813153
20
-33.200297197271517
30
0
11
50.754024555651149
21
-34.077492697829889
31
0
0
SPLINE
5
287
100
AcDbEntity
8
0
100
AcDbSpline
70
0
71
2
72
6
73
3
74
0
42
0.000000001
43
0.0000000001
44
0.0000000001
40
0
40
0
40
0
40
1
40
1
40
1
10
50.754024555651149
20
-34.077492697829889
30
0
10
50.785620144258061
20
-34.244588359107951
30
0
10
50.802410733191408
20
-34.425811248133726
30
0
0
SPLINE
5
288
100
AcDbEntity
8
0
100
AcDbSpline
70
0
71
2
72
6
73
3
74
0
42
0.000000001
43
0.0000000001
44
0.0000000001
40
0
40
0
40
0
40
1
40
1
40
1
10
50.802410733191408
20
-34.425811248133726
30
0
10
50.871965274613146
20
-34.265909636695163
30
0
10
50.956320624884142
20
-34.11677619445431
30
0
0
LINE
5
289
100
AcDbEntity
8
0
100
AcDbLine
10
50.956320624884142
20
-34.11677619445431
30
0
11
51.40075607027596
21
-33.334778424640547
31
0
0
LINE
5
290
100
AcDbEntity
8
0
100
AcDbLine
10
51.400756070275946
20
-33.334778424640547
30
0
11
51.642974203962986
21
-33.375190144225463
31
0
0
LINE
5
291
100
AcDbEntity
8
0
100
AcDbLine
10
51.642974203962986
20
-33.375190144225463
30
0
11
50.856858681505287
21
-34.737797227820558
31
0
0
SPLINE
5
292
100
AcDbEntity
8
0
100
AcDbSpline
70
0
71
2
72
6
73
3
74
0
42
0.000000001
43
0.0000000001
44
0.0000000001
40
0
40
0
40
0
40
1
40
1
40
1
10
50.856858681505287
20
-34.737797227820558
30
0
10
50.730101843826382
20
-34.958694010430385
30
0
10
50.666840566578671
20
-35.039424920951873
30
0
0
SPLINE
5
293
100
AcDbEntity
8
0
100
AcDbSpline
70
0
71
2
72
6
73
3
74
0
42
0.000000001
43
0.0000000001
44
0.0000000001
40
0
40
0
40
0
40
1
40
1
40
1
10
50.666840566578671
20
-35.039424920951873
30
0
10
50.582267782134224
20
-35.14841190234948
30
0
10
50.489519927179629
20
-35.190337068810678
30
0
0
SPLINE
5
294
100
AcDbEntity
8
0
100
AcDbSpline
70
0
71
2
72
6
73
3
74
0
42
0.000000001
43
0.0000000001
44
0.0000000001
40
0
40
0
40
0
40
1
40
1
40
1
10
50.489519927179629
20
-35.190337068810678
30
0
10
50.396772072225041
20
-35.232262235271875
30
0
10
50.28104563384079
20
-35.212954414237345
30
0
0
SPLINE
5
295
100
AcDbEntity
8
0
100
AcDbSpline
70
0
71
2
72
6
73
3
74
0
42
0.000000001
43
0.0000000001
44
0.0000000001
40
0
40
0
40
0
40
1
40
1
40
1
10
50.28104563384079
20
-35.212954414237345
30
0
10
50.211071500615311
20
-35.201279916514736
30
0
10
50.129888689050134
20
-35.157306882737338
30
0
0
LINE
5
296
100
AcDbEntity
8
0
100
AcDbLine
10
-53.784815278155094
20
-37.902439641727035
30
0
11
-55.032887555629848
21
-37.745952674808251
31
0
0
LINE
5
297
100
AcDbEntity
8
0
100
AcDbLine
10
-55.032887555629848
20
-37.745952674808251
30
0
11
-55.059873920475589
21
-37.961184233684754
31
0
0
LINE
5
298
100
AcDbEntity
8
0
100
AcDbLine
10
-55.059873920475582
20
-37.961184233684754
30
0
11
-55.24938601267587
21
-37.937422651092071
31
0
0
LINE
5
299
100
AcDbEntity
8
0
100
AcDbLine
10
-55.249386012675885
20
-37.937422651092071
30
0
11
-55.222399647830144
21
-37.722191092215567
31
0
0
LINE
5
300
100
AcDbEntity
8
0
100
AcDbLine
10
-55.222399647830144
20
-37.722191092215567
30
0
11
-55.375362983616213
21
-37.703012100021802
31
0
0
SPLINE
5
301
100
AcDbEntity
8
0
100
AcDbSpline
70
0
71
2
72
6
73
3
74
0
42
0.000000001
43
0.0000000001
44
0.0000000001
40
0
40
0
40
0
40
1
40
1
40
1
10
-55.375362983616213
20
-37.703012100021809
30
0
10
-55.520204258534925
20
-37.684851475668751
30
0
10
-55.587369780445215
20
-37.650306242501067
30
0
0
SPLINE
5
302
100
AcDbEntity
8
0
100
AcDbSpline
70
0
71
2
72
6
73
3
74
0
42
0.000000001
43
0.0000000001
44
0.0000000001
40
0
40
0
40
0
40
1
40
1
40
1
10
-55.587369780445215
20
-37.650306242501067
30
0
10
-55.677712961802598
20
-37.603230353119976
30
0
10
-55.725479954318672
20
-37.507182727762981
30
0
0
SPLINE
5
303
100
AcDbEntity
8
0
100
AcDbSpline
70
0
71
2
72
6
73
3
74
0
42
0.000000001
43
0.0000000001
44
0.0000000001
40
0
40
0
40
0
40
1
40
1
40
1
10
-55.725479954318672
20
-37.507182727762981
30
0
10
-55.773247094688692
20
-37.411135083867634
30
0
10
-55.753219471896855
20
-37.251403437952426
30
0
0
SPLINE
5
304
100
AcDbEntity
8
0
100
AcDbSpline
70
0
71
2
72
6
73
3
74
0
42
0.000000001
43
0.0000000001
44
0.0000000001
40
0
40
0
40
0
40
1
40
1
40
1
10
-55.753219471896855
20
-37.251403437952426
30
0
10
-55.740320331298172
20
-37.148525478838877
30
0
10
-55.700339693306844
20
-37.027044052899058
30
0
0
LINE
5
305
100
AcDbEntity
8
0
100
AcDbLine
10
-55.700339693306844
20
-37.027044052899058
30
0
11
-55.492398055349533
21
-37.090239721108738
31
0
0
SPLINE
5
306
100
AcDbEntity
8
0
100
AcDbSpline
70
0
71
2
72
6
73
3
74
0
42
0.000000001
43
0.0000000001
44
0.0000000001
40
0
40
0
40
0
40
1
40
1
40
1
10
-55.492398055349533
20
-37.090239721108738
30
0
10
-55.515439312352576
20
-37.164347326363497
30
0
10
-55.523925590525792
20
-37.232030205874025
30
0
0
SPLINE
5
307
100
AcDbEntity
8
0
100
AcDbSpline
70
0
71
2
72
6
73
3
74
0
42
0.000000001
43
0.0000000001
44
0.0000000001
40
0
40
0
40
0
40
1
40
1
40
1
10
-55.523925590525792
20
-37.232030205874025
30
0
10
-55.537843085061418
20
-37.343030114964449
30
0
10
-55.496235729686063
20
-37.394994856851476
30
0
0
SPLINE
5
308
100
AcDbEntity
8
0
100
AcDbSpline
70
0
71
2
72
6
73
3
74
0
42
0.000000001
43
0.0000000001
44
0.0000000001
40
0
40
0
40
0
40
1
40
1
40
1
10
-55.496235729686063
20
-37.394994856851476
30
0
10
-55.454628378945301
20
-37.446959635701987
30
0
10
-55.324677179315174
20
-37.463253298692976
30
0
0
LINE
5
309
100
AcDbEntity
8
0
100
AcDbLine
10
-55.324677179315174
20
-37.463253298692976
30
0
11
-55.192018773916551
21
-37.479886399092514
31
0
0
LINE
5
310
100
AcDbEntity
8
0
100
AcDbLine
10
-55.192018773916551
20
-37.479886399092514
30
0
11
-55.156885583947883
21
-37.199679291225742
31
0
0
LINE
5
311
100
AcDbEntity
8
0
100
AcDbLine
10
-55.156885583947869
20
-37.199679291225742
30
0
11
-54.96737349174758
21
-37.223440873818426
31
0
0
LINE
5
312
100
AcDbEntity
8
0
100
AcDbLine
10
-54.96737349174758
20
-37.223440873818426
30
0
11
-55.002506681716248
21
-37.503647981685198
31
0
0
LINE
5
313
100
AcDbEntity
8
0
100
AcDbLine
10
-55.002506681716248
20
-37.503647981685198
30
0
11
-53.754434404241493
21
-37.660134948603975
31
0
0
LINE
5
314
100
AcDbEntity
8
0
100
AcDbLine
10
-53.754434404241501
20
-37.660134948603975
30
0
11
-53.784815278155094
21
-37.902439641727035
31
0
0
LINE
5
315
100
AcDbEntity
8
0
100
AcDbLine
10
-53.244067035016073
20
-36.238196795780063
30
0
11
-53.433674434871143
21
-36.141537038194954
31
0
0
SPLINE
5
316
100
AcDbEntity
8
0
100
AcDbSpline
70
0
71
2
72
6
73
3
74
0
42
0.000000001
43
0.0000000001
44
0.0000000001
40
0
40
0
40
0
40
1
40
1
40
1
10
-53.433674434871143
20
-36.141537038194954
30
0
10
-53.291728896414
20
-36.403781025872341
30
0
10
-53.423706595493776
20
-36.662667960689433
30
0
0
SPLINE
5
317
100
AcDbEntity
8
0
100
AcDbSpline
70
0
71
2
72
6
73
3
74
0
42
0.000000001
43
0.0000000001
44
0.0000000001
40
0
40
0
40
0
40
1
40
1
40
1
10
-53.423706595493776
20
-36.662667960689433
30
0
10
-53.48195029904776
20
-36.776918580230628
30
0
10
-53.576204175854102
20
-36.853670248140574
30
0
0
SPLINE
5
318
100
AcDbEntity
8
0
100
AcDbSpline
70
0
71
2
72
6
73
3
74
0
42
0.000000001
43
0.0000000001
44
0.0000000001
40
0
40
0
40
0
40
1
40
1
40
1
10
-53.576204175854102
20
-36.853670248140574
30
0
10
-53.670458335092178
20
-36.930421813884315
30
0
10
-53.761174155513686
20
-36.944662401965289
30
0
0
SPLINE
5
319
100
AcDbEntity
8
0
100
AcDbSpline
70
0
71
2
72
6
73
3
74
0
42
0.000000001
43
0.0000000001
44
0.0000000001
40
0
40
0
40
0
40
1
40
1
40
1
10
-53.761174155513686
20
-36.944662401965289
30
0
10
-53.851889843179023
20
-36.95890305772388
30
0
10
-53.957822874856738
20
-36.929400425604356
30
0
0
SPLINE
5
320
100
AcDbEntity
8
0
100
AcDbSpline
70
0
71
2
72
6
73
3
74
0
42
0.000000001
43
0.0000000001
44
0.0000000001
40
0
40
0
40
0
40
1
40
1
40
1
10
-53.957822874856738
20
-36.929400425604356
30
0
10
-54.029056434438814
20
-36.909930697534442
30
0
10
-54.168831152567456
20
-36.838675090521377
30
0
0
LINE
5
321
100
AcDbEntity
8
0
100
AcDbLine
10
-54.168831152567456
20
-36.838675090521377
30
0
11
-54.968585223843505
21
-36.430969300998747
31
0
0
LINE
5
322
100
AcDbEntity
8
0
100
AcDbLine
10
-54.968585223843505
20
-36.430969300998747
30
0
11
-54.857054762955066
21
-36.21219158810127
31
0
0
LINE
5
323
100
AcDbEntity
8
0
100
AcDbLine
10
-54.857054762955066
20
-36.21219158810127
30
0
11
-54.141165416351278
21
-36.577144067558166
31
0
0
SPLINE
5
324
100
AcDbEntity
8
0
100
AcDbSpline
70
0
71
2
72
6
73
3
74
0
42
0.000000001
43
0.0000000001
44
0.0000000001
40
0
40
0
40
0
40
1
40
1
40
1
10
-54.141165416351271
20
-36.577144067558159
30
0
10
-53.969789553417556
20
-36.664509589050326
30
0
10
-53.903417648901112
20
-36.681500878174177
30
0
0
SPLINE
5
325
100
AcDbEntity
8
0
100
AcDbSpline
70
0
71
2
72
6
73
3
74
0
42
0.000000001
43
0.0000000001
44
0.0000000001
40
0
40
0
40
0
40
1
40
1
40
1
10
-53.903417648901112
20
-36.681500878174177
30
0
10
-53.806588462982631
20
-36.704831165437135
30
0
10
-53.723284791742131
20
-36.663076751447747
30
0
0
SPLINE
5
326
100
AcDbEntity
8
0
100
AcDbSpline
70
0
71
2
72
6
73
3
74
0
42
0.000000001
43
0.0000000001
44
0.0000000001
40
0
40
0
40
0
40
1
40
1
40
1
10
-53.723284791742131
20
-36.663076751447747
30
0
10
-53.639981103582208
20
-36.621322304269313
30
0
10
-53.589792408026
20
-36.522872356697775
30
0
0
SPLINE
5
327
100
AcDbEntity
8
0
100
AcDbSpline
70
0
71
2
72
6
73
3
74
0
42
0.000000001
43
0.0000000001
44
0.0000000001
40
0
40
0
40
0
40
1
40
1
40
1
10
-53.589792408026
20
-36.522872356697775
30
0
10
-53.539603695550383
20
-36.424422375937198
30
0
10
-53.546051413325742
20
-36.312412775678638
30
0
0
SPLINE
5
328
100
AcDbEntity
8
0
100
AcDbSpline
70
0
71
2
72
6
73
3
74
0
42
0.000000001
43
0.0000000001
44
0.0000000001
40
0
40
0
40
0
40
1
40
1
40
1
10
-53.546051413325742
20
-36.312412775678638
30
0
10
-53.552499297696087
20
-36.200403174120538
30
0
10
-53.621124068059281
20
-36.120245541126735
30
0
0
SPLINE
5
329
100
AcDbEntity
8
0
100
AcDbSpline
70
0
71
2
72
6
73
3
74
0
42
0.000000001
43
0.0000000001
44
0.0000000001
40
0
40
0
40
0
40
1
40
1
40
1
10
-53.621124068059281
20
-36.120245541126735
30
0
10
-53.689748838422489
20
-36.040087908132946
30
0
10
-53.855047655138577
20
-35.955820397660801
30
0
0
LINE
5
330
100
AcDbEntity
8
0
100
AcDbLine
10
-53.855047655138577
20
-35.955820397660801
30
0
11
-54.54662828584722
21
-35.603260232994508
31
0
0
LINE
5
331
100
AcDbEntity
8
0
100
AcDbLine
10
-54.546628285847206
20
-35.603260232994515
30
0
11
-54.435097824958767
21
-35.384482520097031
31
0
0
LINE
5
332
100
AcDbEntity
8
0
100
AcDbLine
10
-54.435097824958767
20
-35.384482520097023
30
0
11
-53.14430923257212
21
-36.04251228332928
31
0
0
LINE
5
333
100
AcDbEntity
8
0
100
AcDbLine
10
-53.144309232572127
20
-36.04251228332928
30
0
11
-53.244067035016073
21
-36.238196795780063
31
0
0
LINE
5
334
100
AcDbEntity
8
0
100
AcDbLine
10
-52.890975400509603
20
-35.732063981006739
30
0
11
-53.773986688698457
21
-34.583399789667055
31
0
0
LINE
5
335
100
AcDbEntity
8
0
100
AcDbLine
10
-53.77398668869845
20
-34.583399789667048
30
0
11
-53.598766721300592
21
-34.448703147867896
31
0
0
LINE
5
336
100
AcDbEntity
8
0
100
AcDbLine
10
-53.598766721300599
20
-34.448703147867903
30
0
11
-53.473216141044595
21
-34.612025471909519
31
0
0
SPLINE
5
337
100
AcDbEntity
8
0
100
AcDbSpline
70
0
71
2
72
6
73
3
74
0
42
0.000000001
43
0.0000000001
44
0.0000000001
40
0
40
0
40
0
40
1
40
1
40
1
10
-53.473216141044595
20
-34.612025471909519
30
0
10
-53.492174045048777
20
-34.325463720654803
30
0
10
-53.253139410199175
20
-34.141710903746556
30
0
0
SPLINE
5
338
100
AcDbEntity
8
0
100
AcDbSpline
70
0
71
2
72
6
73
3
74
0
42
0.000000001
43
0.0000000001
44
0.0000000001
40
0
40
0
40
0
40
1
40
1
40
1
10
-53.253139410199175
20
-34.141710903746556
30
0
10
-53.149305362008157
20
-34.061890676614652
30
0
10
-53.033550788088341
20
-34.032273399884062
30
0
0
SPLINE
5
339
100
AcDbEntity
8
0
100
AcDbSpline
70
0
71
2
72
6
73
3
74
0
42
0.000000001
43
0.0000000001
44
0.0000000001
40
0
40
0
40
0
40
1
40
1
40
1
10
-53.033550788088341
20
-34.032273399884062
30
0
10
-52.917796182421206
20
-34.002656286700677
30
0
10
-52.827970236230932
20
-34.029967617571991
30
0
0
SPLINE
5
340
100
AcDbEntity
8
0
100
AcDbSpline
70
0
71
2
72
6
73
3
74
0
42
0.000000001
43
0.0000000001
44
0.0000000001
40
0
40
0
40
0
40
1
40
1
40
1
10
-52.827970236230932
20
-34.029967617571991
30
0
10
-52.738144199223939
20
-34.057279066582133
30
0
10
-52.65681599306177
20
-34.127259309457912
30
0
0
SPLINE
5
341
100
AcDbEntity
8
0
100
AcDbSpline
70
0
71
2
72
6
73
3
74
0
42
0.000000001
43
0.0000000001
44
0.0000000001
40
0
40
0
40
0
40
1
40
1
40
1
10
-52.65681599306177
20
-34.127259309457912
30
0
10
-52.604426920185254
20
-34.173024850624806
30
0
10
-52.500494262296364
20
-34.308225525887515
30
0
0
LINE
5
342
100
AcDbEntity
8
0
100
AcDbLine
10
-52.500494262296364
20
-34.308225525887515
30
0
11
-51.957550468702927
21
-35.014513318527285
31
0
0
LINE
5
343
100
AcDbEntity
8
0
100
AcDbLine
10
-51.957550468702927
20
-35.014513318527285
30
0
11
-52.152239360746826
21
-35.164176284131919
31
0
0
LINE
5
344
100
AcDbEntity
8
0
100
AcDbLine
10
-52.152239360746819
20
-35.164176284131919
30
0
11
-52.68936298289465
21
-34.465459654643119
31
0
0
SPLINE
5
345
100
AcDbEntity
8
0
100
AcDbSpline
70
0
71
2
72
6
73
3
74
0
42
0.000000001
43
0.0000000001
44
0.0000000001
40
0
40
0
40
0
40
1
40
1
40
1
10
-52.68936298289465
20
-34.465459654643119
30
0
10
-52.780823689142849
20
-34.346483102941917
30
0
10
-52.848852054439519
20
-34.304996303552535
30
0
0
SPLINE
5
346
100
AcDbEntity
8
0
100
AcDbSpline
70
0
71
2
72
6
73
3
74
0
42
0.000000001
43
0.0000000001
44
0.0000000001
40
0
40
0
40
0
40
1
40
1
40
1
10
-52.848852054439519
20
-34.304996303552535
30
0
10
-52.916880328919461
20
-34.263509622301989
30
0
10
-53.001768570821454
20
-34.272840653426982
30
0
0
SPLINE
5
347
100
AcDbEntity
8
0
100
AcDbSpline
70
0
71
2
72
6
73
3
74
0
42
0.000000001
43
0.0000000001
44
0.0000000001
40
0
40
0
40
0
40
1
40
1
40
1
10
-53.001768570821454
20
-34.272840653426982
30
0
10
-53.086656962609581
20
-34.282171611821511
30
0
10
-53.164532483985489
20
-34.342036770818346
30
0
0
SPLINE
5
348
100
AcDbEntity
8
0
100
AcDbSpline
70
0
71
2
72
6
73
3
74
0
42
0.000000001
43
0.0000000001
44
0.0000000001
40
0
40
0
40
0
40
1
40
1
40
1
10
-53.164532483985489
20
-34.342036770818346
30
0
10
-53.288917017804451
20
-34.437654748871751
30
0
10
-53.318534390575742
20
-34.586038869805336
30
0
0
SPLINE
5
349
100
AcDbEntity
8
0
100
AcDbSpline
70
0
71
2
72
6
73
3
74
0
42
0.000000001
43
0.0000000001
44
0.0000000001
40
0
40
0
40
0
40
1
40
1
40
1
10
-53.318534390575742
20
-34.586038869805336
30
0
10
-53.348151763347033
20
-34.734422990738921
30
0
10
-53.178533729607338
20
-34.955070409597923
30
0
0
LINE
5
350
100
AcDbEntity
8
0
100
AcDbLine
10
-53.178533729607338
20
-34.955070409597923
30
0
11
-52.696286567535118
21
-35.582401060810469
31
0
0
LINE
5
351
100
AcDbEntity
8
0
100
AcDbLine
10
-52.696286567535118
20
-35.582401060810469
30
0
11
-52.890975400509603
21
-35.732063981006739
31
0
0
LINE
5
352
100
AcDbEntity
8
0
100
AcDbLine
10
-51.597857237625142
20
-34.859748717381422
30
0
11
-52.061257397248241
21
-32.914174146394593
31
0
0
LINE
5
353
100
AcDbEntity
8
0
100
AcDbLine
10
-52.061257397248227
20
-32.914174146394593
30
0
11
-51.822373759487775
21
-32.857276447627186
31
0
0
LINE
5
354
100
AcDbEntity
8
0
100
AcDbLine
10
-51.822373759487789
20
-32.857276447627186
30
0
11
-51.558115539076994
21
-33.9667583136318
31
0
0
LINE
5
355
100
AcDbEntity
8
0
100
AcDbLine
10
-51.558115539076994
20
-33.9667583136318
30
0
11
-51.12931203036473
21
-33.258779670351103
31
0
0
LINE
5
356
100
AcDbEntity
8
0
100
AcDbLine
10
-51.129312030364737
20
-33.258779670351103
30
0
11
-50.820090467728882
21
-33.185128768647722
31
0
0
LINE
5
357
100
AcDbEntity
8
0
100
AcDbLine
10
-50.820090467728882
20
-33.185128768647722
30
0
11
-51.234363070082985
21
-33.836354461310584
31
0
0
LINE
5
358
100
AcDbEntity
8
0
100
AcDbLine
10
-51.234363070082985
20
-33.836354461310584
30
0
11
-50.429981689333729
21
-34.581582193430791
31
0
0
LINE
5
359
100
AcDbEntity
8
0
100
AcDbLine
10
-50.429981689333722
20
-34.581582193430791
30
0
11
-50.724604817808192
21
-34.651756016012399
31
0
0
LINE
5
360
100
AcDbEntity
8
0
100
AcDbLine
10
-50.724604817808192
20
-34.651756016012399
30
0
11
-51.362069315003978
21
-34.042074222056101
31
0
0
LINE
5
361
100
AcDbEntity
8
0
100
AcDbLine
10
-51.362069315003971
20
-34.042074222056108
30
0
11
-51.492051001237293
21
-34.24412870765466
31
0
0
LINE
5
362
100
AcDbEntity
8
0
100
AcDbLine
10
-51.4920510012373
20
-34.244128707654653
30
0
11
-51.358973599864697
21
-34.802851018614007
31
0
0
LINE
5
363
100
AcDbEntity
8
0
100
AcDbLine
10
-51.35897359986469
20
-34.802851018614014
30
0
11
-51.597857237625142
21
-34.859748717381422
31
0
0
LINE
5
364
100
AcDbEntity
8
0
100
AcDbLine
10
-50.32182840881471
20
-35.157306882737331
30
0
11
-50.31079940441159
21
-34.92540069472637
31
0
0
SPLINE
5
365
100
AcDbEntity
8
0
100
AcDbSpline
70
0
71
2
72
6
73
3
74
0
42
0.000000001
43
0.0000000001
44
0.0000000001
40
0
40
0
40
0
40
1
40
1
40
1
10
-50.310799404411597
20
-34.92540069472637
30
0
10
-50.234997826414144
20
-34.960177274112439
30
0
10
-50.175788950107204
20
-34.970055694319193
30
0
0
SPLINE
5
366
100
AcDbEntity
8
0
100
AcDbSpline
70
0
71
2
72
6
73
3
74
0
42
0.000000001
43
0.0000000001
44
0.0000000001
40
0
40
0
40
0
40
1
40
1
40
1
10
-50.175788950107204
20
-34.970055694319193
30
0
10
-50.095049559963186
20
-34.983526269557679
30
0
10
-50.042115783568363
20
-34.964695690422232
30
0
0
SPLINE
5
367
100
AcDbEntity
8
0
100
AcDbSpline
70
0
71
2
72
6
73
3
74
0
42
0.000000001
43
0.0000000001
44
0.0000000001
40
0
40
0
40
0
40
1
40
1
40
1
10
-50.042115783568363
20
-34.964695690422232
30
0
10
-49.989181958129194
20
-34.945864817326758
30
0
10
-49.950149465033398
20
-34.902584813626746
30
0
0
SPLINE
5
368
100
AcDbEntity
8
0
100
AcDbSpline
70
0
71
2
72
6
73
3
74
0
42
0.000000001
43
0.0000000001
44
0.0000000001
40
0
40
0
40
0
40
1
40
1
40
1
10
-49.950149465033398
20
-34.902584813626746
30
0
10
-49.921211578425392
20
-34.870068898535152
30
0
10
-49.846054135620022
20
-34.734615114672096
30
0
0
SPLINE
5
369
100
AcDbEntity
8
0
100
AcDbSpline
70
0
71
2
72
6
73
3
74
0
42
0.000000001
43
0.0000000001
44
0.0000000001
40
0
40
0
40
0
40
1
40
1
40
1
10
-49.846054135620022
20
-34.734615114672096
30
0
10
-49.835958189358195
20
-34.715552601234478
30
0
10
-49.814645158662415
20
-34.678998136181882
30
0
0
LINE
5
370
100
AcDbEntity
8
0
100
AcDbLine
10
-49.814645158662415
20
-34.678998136181882
30
0
11
-50.118066517939297
21
-33.156742341267503
31
0
0
LINE
5
371
100
AcDbEntity
8
0
100
AcDbLine
10
-50.11806651793929
20
-33.156742341267503
30
0
11
-49.857009180051691
21
-33.20029719727151
31
0
0
LINE
5
372
100
AcDbEntity
8
0
100
AcDbLine
10
-49.857009180051691
20
-33.20029719727151
30
0
11
-49.697692542213694
21
-34.077492697829882
31
0
0
SPLINE
5
373
100
AcDbEntity
8
0
100
AcDbSpline
70
0
71
2
72
6
73
3
74
0
42
0.000000001
43
0.0000000001
44
0.0000000001
40
0
40
0
40
0
40
1
40
1
40
1
10
-49.697692542213694
20
-34.077492697829882
30
0
10
-49.666096953606782
20
-34.244588359107944
30
0
10
-49.649306364673436
20
-34.425811248133719
30
0
0
SPLINE
5
374
100
AcDbEntity
8
0
100
AcDbSpline
70
0
71
2
72
6
73
3
74
0
42
0.000000001
43
0.0000000001
44
0.0000000001
40
0
40
0
40
0
40
1
40
1
40
1
10
-49.649306364673436
20
-34.425811248133719
30
0
10
-49.579751823251705
20
-34.265909636695156
30
0
10
-49.495396472980701
20
-34.116776194454303
30
0
0
LINE
5
375
100
AcDbEntity
8
0
100
AcDbLine
10
-49.495396472980701
20
-34.116776194454303
30
0
11
-49.05096102758889
21
-33.334778424640533
31
0
0
LINE
5
376
100
AcDbEntity
8
0
100
AcDbLine
10
-49.050961027588897
20
-33.33477842464054
30
0
11
-48.808742893901858
21
-33.375190144225456
31
0
0
LINE
5
377
100
AcDbEntity
8
0
100
AcDbLine
10
-48.808742893901858
20
-33.375190144225456
30
0
11
-49.594858416359557
21
-34.73779722782055
31
0
0
SPLINE
5
378
100
AcDbEntity
8
0
100
AcDbSpline
70
0
71
2
72
6
73
3
74
0
42
0.000000001
43
0.0000000001
44
0.0000000001
40
0
40
0
40
0
40
1
40
1
40
1
10
-49.594858416359557
20
-34.73779722782055
30
0
10
-49.721615254038468
20
-34.958694010430371
30
0
10
-49.784876531286173
20
-35.039424920951859
30
0
0
SPLINE
5
379
100
AcDbEntity
8
0
100
AcDbSpline
70
0
71
2
72
6
73
3
74
0
42
0.000000001
43
0.0000000001
44
0.0000000001
40
0
40
0
40
0
40
1
40
1
40
1
10
-49.784876531286173
20
-35.039424920951859
30
0
10
-49.869449315730627
20
-35.148411902349473
30
0
10
-49.962197170685215
20
-35.19033706881067
30
0
0
SPLINE
5
380
100
AcDbEntity
8
0
100
AcDbSpline
70
0
71
2
72
6
73
3
74
0
42
0.000000001
43
0.0000000001
44
0.0000000001
40
0
40
0
40
0
40
1
40
1
40
1
10
-49.962197170685215
20
-35.19033706881067
30
0
10
-50.054945025639803
20
-35.232262235271861
30
0
10
-50.170671464024053
20
-35.212954414237338
30
0
0
SPLINE
5
381
100
AcDbEntity
8
0
100
AcDbSpline
70
0
71
2
72
6
73
3
74
0
42
0.000000001
43
0.0000000001
44
0.0000000001
40
0
40
0
40
0
40
1
40
1
40
1
10
-50.170671464024053
20
-35.212954414237338
30
0
10
-50.240645597249539
20
-35.201279916514721
30
0
10
-50.32182840881471
20
-35.157306882737331
30
0
0
ENDSEC
0
SECTION
2
OBJECTS
0
DICTIONARY
5
C
100
AcDbDictionary
3
ACAD_GROUP
350
D
3
ACAD_MLINESTYLE
350
17
0
DICTIONARY
5
D
100
AcDbDictionary
0
DICTIONARY
5
1A
330
C
100
AcDbDictionary
0
DICTIONARY
5
17
100
AcDbDictionary
0
ENDSEC
0
EOF
