0
SECTION
2
HEADER
9
$INSUNITS
70
4
9
$ACADVER
1
AC1014
9
$HANDSEED
5
FFFF
0
ENDSEC
0
SECTION
2
TABLES
0
TABLE
2
VPORT
5
8
100
AcDbSymbolTable
0
ENDTAB
0
TABLE
2
LTYPE
5
5
100
AcDbSymbolTable
0
LTYPE
5
14
100
AcDbSymbolTableRecord
100
AcDbLinetypeTableRecord
2
BYBLOCK
70
0
0
LTYPE
5
15
100
AcDbSymbolTableRecord
100
AcDbLinetypeTableRecord
2
BYLAYER
70
0
0
LTYPE
5
16
100
AcDbSymbolTableRecord
100
AcDbLinetypeTableRecord
2
DASHED
70
0
3
Dashed __ __ __ __ __ __ __ __ __ __ __ __ __ _
72
65
73
2
40
0.75
49
0.5
74
0
49
-0.25
74
0
0
ENDTAB
0
TABLE
2
LAYER
5
2
100
AcDbSymbolTable
70
2
0
LAYER
5
50
100
AcDbSymbolTableRecord
100
AcDbLayerTableRecord
2
0
70
0
62
7
6
CONTINUOUS
0
ENDTAB
0
TABLE
2
STYLE
5
3
100
AcDbSymbolTable
70
1
0
STYLE
5
11
100
AcDbSymbolTableRecord
100
AcDbTextStyleTableRecord
2
STANDARD
70
0
0
ENDTAB
0
TABLE
2
VIEW
5
6
100
AcDbSymbolTable
70
0
0
ENDTAB
0
TABLE
2
UCS
5
7
100
AcDbSymbolTable
70
0
0
ENDTAB
0
TABLE
2
APPID
5
9
100
AcDbSymbolTable
70
2
0
APPID
5
12
100
AcDbSymbolTableRecord
100
AcDbRegAppTableRecord
2
ACAD
70
0
0
ENDTAB
0
TABLE
2
DIMSTYLE
5
A
100
AcDbSymbolTable
70
1
0
ENDTAB
0
TABLE
2
BLOCK_RECORD
5
1
100
AcDbSymbolTable
70
1
0
BLOCK_RECORD
5
1F
100
AcDbSymbolTableRecord
100
AcDbBlockTableRecord
2
*MODEL_SPACE
0
BLOCK_RECORD
5
1B
100
AcDbSymbolTableRecord
100
AcDbBlockTableRecord
2
*PAPER_SPACE
0
ENDTAB
0
ENDSEC
0
SECTION
2
BLOCKS
0
BLOCK
5
20
100
AcDbEntity
100
AcDbBlockBegin
2
*MODEL_SPACE
0
ENDBLK
5
21
100
AcDbEntity
100
AcDbBlockEnd
0
BLOCK
5
1C
100
AcDbEntity
100
AcDbBlockBegin
2
*PAPER_SPACE
0
ENDBLK
5
1D
100
AcDbEntity
100
AcDbBlockEnd
0
ENDSEC
0
SECTION
2
ENTITIES
0
LWPOLYLINE
5
100
100
AcDbEntity
8
0
100
AcDbPolyline
90
4
70
1
43
0.0
10
346
20
-57.496681399475477
10
346
20
-41.496681399475477
10
374
20
-41.496681399475477
10
374
20
-57.496681399475477
0
CIRCLE
5
101
100
AcDbEntity
8
0
100
AcDbCircle
10
390.30966012551119
20
-17.500572586647998
30
0
40
4.2499999999999982
210
0
220
-0
230
1
0
CIRCLE
5
102
100
AcDbEntity
8
0
100
AcDbCircle
10
329.69033987448881
20
-17.500572586647994
30
0
40
4.2499999999999982
210
0
220
-0
230
1
0
CIRCLE
5
103
100
AcDbEntity
8
0
100
AcDbCircle
10
360.00196176373458
20
34.999999945021187
30
0
40
4.25
210
0
220
-0
230
1
0
CIRCLE
5
104
100
AcDbEntity
8
0
100
AcDbCircle
10
319.85870870647034
20
33.842372514555976
30
0
40
2.5
210
0
220
-0
230
1
0
CIRCLE
5
105
100
AcDbEntity
8
0
100
AcDbCircle
10
319.85870870647034
20
-33.842372514555976
30
0
40
2.5
210
0
220
-0
230
1
0
CIRCLE
5
106
100
AcDbEntity
8
0
100
AcDbCircle
10
400.14129129352966
20
33.842372514555983
30
0
40
2.5
210
0
220
-0
230
1
0
CIRCLE
5
107
100
AcDbEntity
8
0
100
AcDbCircle
10
400.14129129352966
20
-33.842372514555983
30
0
40
2.5
210
0
220
-0
230
1
0
CIRCLE
5
108
100
AcDbEntity
8
0
100
AcDbCircle
10
329.69033987448881
20
17.500572586647994
30
0
40
4.2499999999999982
210
0
220
-0
230
1
0
CIRCLE
5
109
100
AcDbEntity
8
0
100
AcDbCircle
10
360.00196176373458
20
-34.999999945021187
30
0
40
4.25
210
0
220
-0
230
1
0
CIRCLE
5
110
100
AcDbEntity
8
0
100
AcDbCircle
10
390.30966012551119
20
17.500572586647998
30
0
40
4.2499999999999982
210
0
220
-0
230
1
0
LWPOLYLINE
5
111
100
AcDbEntity
8
0
100
AcDbPolyline
90
52
70
1
43
0.0
10
434.67621214974463
20
15.681366630868922
10
434.0869395766307
20
20.77220863532623
42
-0.15093522401501408
10
434.66700618053903
20
23.980358948261987
42
-0.23599617789641344
10
438.28279514444512
20
26.610033752182467
42
0.0253062260787634
10
440.75146895333086
20
27.151428551440119
42
0.27449607860662417
10
446.11284169699792
20
33.79804269756886
10
446.55014665174019
20
37.899682538784262
10
447.58182740692013
20
50.36299881727237
42
-0.036318268955805734
10
447.69395489161877
20
51.079689124278971
42
0.39311625938695632
10
443.31140442390614
20
58.710634034620824
42
-0.013539044464436566
10
443.05505733865539
20
58.797706352183212
10
412.14419578927505
20
70.239481953189241
42
0.33019762475557246
10
392.47875320714627
20
63.770196387543507
42
-0.2701086788432519
10
387.89815507696972
20
61.680287839565437
42
0.050071459968883548
10
332.22726110292444
20
61.653884043027716
42
-0.26229862799583509
10
327.32779554464577
20
63.79795934689669
42
0.32712438047933717
10
307.45833946499681
20
69.797476687972903
10
277.31120835246054
20
59.165116131065588
42
0.33230127146429655
10
271.96180469973984
20
51.177206637994779
10
273.44943056638266
20
37.902963619094997
42
-0.0013467709233887179
10
273.45235828546441
20
37.876187835312876
10
273.88715830300157
20
33.798042697572683
42
0.27449607860672887
10
279.24853104666857
20
27.15142855144034
42
0.025306226078771369
10
281.71720485555488
20
26.610033752182606
42
-0.23599617789635602
10
285.33299381946046
20
23.980358948263081
42
-0.15409637076409902
10
285.90442236141871
20
20.704509873687385
10
285.23311430071607
20
15.690248935992496
42
-1.0680795075117078
10
284.83588864843642
20
12.723216081372694
10
281.44042471828129
20
-12.638824309603766
42
-0.166966971936654
10
279.9865935005339
20
-15.544144149244532
42
0.47453825470142952
10
282.32052601911619
20
-41.038863051121552
42
-0.37842286714670825
10
283.98342867200358
20
-47.447009468144692
42
0.38480234161542609
10
285.40173394743613
20
-52.672505844902233
42
-0.072173779003142563
10
286.48586962761107
20
-53.614170658590659
10
298.80568051057509
20
-67.903593422336513
42
0.27597704934376077
10
303.36465001183262
20
-69.418105374417792
42
-0.34960003712318122
10
308.96175660263742
20
-72.155186939085354
42
0.6907894176904158
10
340.20435120847168
20
-69.600891808148077
42
-0.33433594893105884
10
345.00937161121664
20
-65.983562748467847
10
374.686540492478
20
-65.983562748467847
42
-0.290640841437175
10
379.21157042284511
20
-68.856568594907003
10
380.73406966930247
20
-72.095578277960144
42
0.63353510921884204
10
411.03824339736258
20
-72.155186939085382
42
-0.34960003712318494
10
416.63534998816743
20
-69.418105374417792
42
0.27597704934376605
10
421.19431948942497
20
-67.903593422336542
10
433.5141303723891
20
-53.614170658590453
42
-0.072173779003136873
10
434.59826605256399
20
-52.672505844902098
42
0.3848023416154121
10
436.01657132799636
20
-47.447009468144721
42
-0.3784228671467027
10
437.67947398088376
20
-41.038863051121631
42
0.48785189347270286
10
439.49272388586041
20
-15.054856006489354
42
-0.1827069958686833
10
437.87029303424026
20
-11.912928224050624
10
435.02113524277138
20
12.701507987511034
42
-0.9872981843062888
0
ENDSEC
0
SECTION
2
OBJECTS
0
DICTIONARY
5
C
100
AcDbDictionary
3
ACAD_GROUP
350
D
3
ACAD_MLINESTYLE
350
17
0
DICTIONARY
5
D
100
AcDbDictionary
0
DICTIONARY
5
1A
330
C
100
AcDbDictionary
0
DICTIONARY
5
17
100
AcDbDictionary
0
ENDSEC
0
EOF
